# 3ds Max Wavefront OBJ Exporter v0.99 - (c)2007 guruware
# File Created: 30.06.2024 19:16:37

mtllib redbutton.mtl

#
# object Box001
#

v  -59.9709 3.1901 16.3871
v  -59.9709 3.1901 -15.0756
v  -46.0337 3.1901 -24.5144
v  0.4234 3.1901 -24.5144
v  14.3606 3.1901 -15.0756
v  14.3606 3.1901 16.3871
v  0.4234 3.1901 25.8259
v  -46.0337 3.1901 25.8259
v  -43.4590 24.0103 17.4325
v  -2.1513 24.0103 17.4325
v  5.9672 24.0103 11.9343
v  5.9672 24.0103 -10.6228
v  -2.1513 24.0103 -16.1210
v  -43.4590 24.0103 -16.1210
v  -51.5775 24.0103 -10.6228
v  -51.5775 24.0103 11.9343
v  0.4234 7.0103 25.8259
v  -46.0337 7.0103 25.8259
v  14.3606 7.0103 -15.0756
v  14.3606 7.0103 16.3871
v  -46.0337 7.0103 -24.5144
v  0.4234 7.0103 -24.5144
v  -59.9709 7.0103 16.3871
v  -59.9709 7.0103 -15.0756
v  -1.2310 7.0103 20.4325
v  -44.3793 7.0103 20.4325
v  8.9672 7.0103 13.5258
v  8.9672 7.0103 -12.2143
v  -1.2310 7.0103 -19.1210
v  -44.3793 7.0103 -19.1210
v  -54.5775 7.0103 -12.2143
v  -54.5775 7.0103 13.5258
v  -1.2310 22.0103 20.4325
v  -44.3793 22.0103 20.4325
v  8.9672 22.0103 13.5258
v  8.9672 22.0103 -12.2143
v  -1.2310 22.0103 -19.1210
v  -44.3793 22.0103 -19.1210
v  -54.5775 22.0103 -12.2143
v  -54.5775 22.0103 13.5258
# 40 vertices

vn -0.6964 -0.6153 0.3694
vn -0.6964 -0.6153 -0.3694
vn -0.2237 -0.6467 -0.7292
vn 0.2237 -0.6467 -0.7292
vn 0.6964 -0.6153 -0.3694
vn 0.6964 -0.6153 0.3694
vn 0.2237 -0.6467 0.7292
vn -0.2237 -0.6467 0.7292
vn -0.0960 0.9449 0.3129
vn 0.0960 0.9449 0.3129
vn 0.2961 0.9421 0.1571
vn 0.2961 0.9421 -0.1571
vn 0.0960 0.9449 -0.3129
vn -0.0960 0.9449 -0.3129
vn -0.2961 0.9421 -0.1571
vn -0.2961 0.9421 0.1571
vn 0.2237 0.6467 0.7292
vn -0.2237 0.6467 0.7292
vn 0.6964 0.6153 -0.3694
vn 0.6964 0.6153 0.3694
vn -0.2237 0.6467 -0.7292
vn 0.2237 0.6467 -0.7292
vn -0.6964 0.6153 0.3694
vn -0.6964 0.6153 -0.3694
vn 0.1837 0.7795 0.5989
vn -0.1837 0.7794 0.5989
vn 0.4937 0.8292 0.2619
vn 0.4938 0.8292 -0.2619
vn 0.1837 0.7794 -0.5989
vn -0.1837 0.7795 -0.5989
vn -0.4937 0.8292 -0.2619
vn -0.4938 0.8292 0.2619
vn 0.2624 0.4466 0.8554
vn -0.2624 0.4465 0.8554
vn 0.7927 0.4415 0.4205
vn 0.7927 0.4414 -0.4205
vn 0.2624 0.4465 -0.8554
vn -0.2624 0.4466 -0.8554
vn -0.7927 0.4415 -0.4205
vn -0.7927 0.4414 0.4205
# 40 vertex normals

vt 1.0000 0.1875 0.0000
vt 1.0000 0.8125 0.0000
vt 0.8125 1.0000 0.0000
vt 0.1875 1.0000 0.0000
vt 0.0000 0.8125 0.0000
vt 0.0000 0.1875 0.0000
vt 0.1875 0.0000 0.0000
vt 0.8125 0.0000 0.0000
vt 0.1841 0.0000 0.0000
vt 0.8739 0.1131 0.0000
vt 1.0000 0.2807 0.0000
vt 0.9610 0.8769 0.0000
vt 0.8159 1.0000 0.0000
vt 0.1261 0.8869 0.0000
vt 0.0000 0.7193 0.0000
vt 0.0390 0.1231 0.0000
vt 0.0000 0.0000 0.0000
vt 1.0000 0.0000 0.0000
vt 1.0000 1.0000 0.0000
vt 0.0000 1.0000 0.0000
# 20 texture coords

o Box001
g Box001
usemtl Material__25
s 2
f 1/1/1 2/2/2 3/3/3 4/4/4 5/5/5 6/6/6 7/7/7 8/8/8 
usemtl Material__37
f 9/9/9 10/10/10 11/11/11 12/12/12 13/13/13 14/14/14 15/15/15 16/16/16 
usemtl Material__25
f 8/7/8 7/8/7 17/3/17 18/4/18 
f 6/7/6 5/8/5 19/3/19 20/4/20 
f 4/7/4 3/8/3 21/3/21 22/4/22 
f 2/7/2 1/8/1 23/3/23 24/4/24 
f 8/8/8 18/7/18 23/6/23 1/1/1 
f 6/6/6 20/1/20 17/8/17 7/7/7 
f 4/4/4 22/3/22 19/2/19 5/5/5 
f 2/2/2 24/5/24 21/4/21 3/3/3 
f 18/7/18 17/8/17 25/8/25 26/7/26 
f 17/8/17 20/1/20 27/1/27 25/8/25 
f 20/1/20 19/2/19 28/2/28 27/1/27 
f 19/2/19 22/3/22 29/3/29 28/2/28 
f 22/3/22 21/4/21 30/4/30 29/3/29 
f 21/4/21 24/5/24 31/5/31 30/4/30 
f 24/5/24 23/6/23 32/6/32 31/5/31 
f 23/6/23 18/7/18 26/7/26 32/6/32 
usemtl Material__37
f 26/17/26 25/18/25 33/19/33 34/20/34 
f 25/17/25 27/18/27 35/19/35 33/20/33 
f 27/17/27 28/18/28 36/19/36 35/20/35 
f 28/17/28 29/18/29 37/19/37 36/20/36 
f 29/17/29 30/18/30 38/19/38 37/20/37 
f 30/17/30 31/18/31 39/19/39 38/20/38 
f 31/17/31 32/18/32 40/19/40 39/20/39 
f 32/17/32 26/18/26 34/19/34 40/20/40 
f 34/17/34 33/18/33 10/19/10 9/20/9 
f 33/17/33 35/18/35 11/19/11 10/20/10 
f 35/17/35 36/18/36 12/19/12 11/20/11 
f 36/17/36 37/18/37 13/19/13 12/20/12 
f 37/17/37 38/18/38 14/19/14 13/20/13 
f 38/17/38 39/18/39 15/19/15 14/20/14 
f 39/17/39 40/18/40 16/19/16 15/20/15 
f 40/17/40 34/18/34 9/19/9 16/20/16 
# 34 polygons

